<?xml version="1.0" encoding="UTF-8" standalone="no"?>
<!-- Created with Inkscape (http://www.inkscape.org/) -->

<svg
   width="200"
   height="200"
   viewBox="0 0 52.916666 52.916668"
   version="1.1"
   id="svg5"
   inkscape:version="1.1 (c68e22c387, 2021-05-23)"
   sodipodi:docname="icognito.svg"
   xmlns:inkscape="http://www.inkscape.org/namespaces/inkscape"
   xmlns:sodipodi="http://sodipodi.sourceforge.net/DTD/sodipodi-0.dtd"
   xmlns="http://www.w3.org/2000/svg"
   xmlns:svg="http://www.w3.org/2000/svg">
  <sodipodi:namedview
     id="namedview7"
     pagecolor="#ffffff"
     bordercolor="#666666"
     borderopacity="1.0"
     inkscape:pageshadow="2"
     inkscape:pageopacity="0.0"
     inkscape:pagecheckerboard="0"
     inkscape:document-units="mm"
     showgrid="false"
     units="px"
     inkscape:zoom="2.6832492"
     inkscape:cx="72.300405"
     inkscape:cy="133.79302"
     inkscape:window-width="2256"
     inkscape:window-height="1410"
     inkscape:window-x="-11"
     inkscape:window-y="-11"
     inkscape:window-maximized="1"
     inkscape:current-layer="layer1" />
  <defs
     id="defs2" />
  <g
     inkscape:label="Layer 1"
     inkscape:groupmode="layer"
     id="layer1">
    <path
       style="fill:#000000;stroke-width:0.216314"
       d="m 26.743636,51.93933 c -0.356917,-0.225149 -0.759409,-0.644274 -0.894424,-0.93137 -0.135014,-0.287096 -0.544522,-1.158145 -0.910017,-1.935658 -0.843447,-1.794259 -1.443829,-2.378646 -2.276919,-2.216262 -0.483704,0.09428 -0.716081,0.340595 -1.055047,1.118319 -0.625858,1.435967 -0.740505,1.54103 -1.420389,1.301648 -0.595157,-0.20955 -1.971174,-1.392313 -2.744704,-2.359226 -0.237946,-0.297431 -1.065346,-0.866921 -1.838669,-1.265534 -0.773322,-0.398613 -1.715905,-0.958325 -2.094628,-1.243805 -0.947326,-0.714091 -1.150082,-0.655412 -1.150082,0.332844 0,0.794939 -0.03976,0.849179 -0.594643,0.811177 -0.467157,-0.03199 -0.609511,0.06362 -0.663987,0.445983 -0.08496,0.596331 -0.34197,0.616617 -0.888455,0.07013 C 9.9575891,45.813494 9.6238396,45.695787 9.3560529,45.765815 9.0113279,45.855964 8.7751825,45.65699 8.2568171,44.839612 7.8937113,44.267055 7.1406396,43.453769 6.5833238,43.032314 4.19553,41.226605 3.6287737,37.36791 5.3626263,34.72133 5.8905294,33.91553 5.9143916,33.735953 5.9662351,30.178737 6.0071542,27.370895 6.1115939,26.187354 6.3980302,25.285384 7.0906831,23.10426 7.1078871,23.197013 5.4203292,20.01425 3.9542487,17.249199 3.7888815,17.026586 2.9132036,16.639232 1.8599646,16.173334 1.7884996,16.004025 2.4083158,15.443099 3.0108952,14.897772 2.9577216,14.678244 2.029776,13.8803 1.3548078,13.299893 1.2730758,13.146069 1.5430602,12.964278 c 0.1784588,-0.120164 0.6895005,-0.21997 1.1356479,-0.221791 0.8020595,-0.0033 0.8111778,-0.01307 0.8111778,-0.871429 v -0.868116 l 2.217218,1.161736 c 1.2194695,0.638955 2.9428015,1.613655 3.8296251,2.166 0.886825,0.552345 1.743394,1.004264 1.903489,1.004264 0.305155,0 0.288137,-0.410515 -0.183837,-4.434436 C 11.144745,9.9487235 10.991018,7.3448442 10.914766,5.1141068 10.797418,1.6811499 10.823518,1.0582196 11.0847,1.0582196 c 0.444506,0 1.963127,1.3038684 6.200708,5.3238441 2.055308,1.9497657 3.822652,3.5450287 3.927432,3.5450287 0.104779,0 0.257447,-0.4867068 0.339261,-1.0815701 0.08182,-0.5948632 0.216286,-1.08157 0.298822,-1.08157 0.08254,0 0.629457,0.4867068 1.215376,1.08157 0.585919,0.5948633 1.126347,1.0815701 1.200951,1.0815701 0.07461,0 0.246525,-0.2433538 0.382045,-0.5407855 0.331149,-0.7267912 0.793563,-0.6821734 1.120928,0.1081573 0.316292,0.7635958 0.762475,0.8200598 1.901364,0.240615 0.977382,-0.4972739 6.215109,-2.1874406 6.778755,-2.1874406 0.222786,0 0.40507,0.051449 0.40507,0.1143258 0,0.1741829 -1.205515,2.4722766 -1.840689,3.5089336 -0.651893,1.063949 -0.73979,1.030331 1.823905,0.697589 0.883068,-0.114613 1.649199,-0.164767 1.702513,-0.111453 0.0533,0.05331 -0.20682,0.48046 -0.578084,0.949215 -0.371264,0.468755 -0.675022,0.92554 -0.675022,1.01508 0,0.08954 2.72491,0.09251 6.055357,0.0066 6.597125,-0.170175 10.014684,-0.02564 9.908131,0.419028 -0.06034,0.251866 -4.088804,3.861577 -6.988779,6.26233 -3.024875,2.504155 -5.297369,4.5188 -5.297369,4.696309 0,0.360483 1.00849,0.571878 3.907713,0.819118 3.137274,0.267542 5.267863,0.600954 5.898361,0.923029 0.37451,0.19131 0.375671,0.217662 0.02101,0.476981 -0.386299,0.28247 -0.267286,0.769014 0.19019,0.777556 0.141692,0.0026 0.494701,0.187029 0.784454,0.409743 l 0.52683,0.404934 -1.067617,0.50959 c -0.981085,0.46829 -1.06209,0.564828 -0.999481,1.191159 0.08438,0.844135 -0.141316,0.998057 -0.9924,0.676808 -0.602946,-0.227587 -0.866226,-0.154576 -2.897858,0.803617 -1.229061,0.579669 -3.256744,1.411074 -4.505958,1.847566 l -2.271301,0.793621 -1.083134,2.141001 c -0.595727,1.177553 -1.43445,2.663643 -1.863827,3.302423 -0.774282,1.151897 -0.778256,1.169468 -0.485134,2.14344 0.388016,1.289283 0.375148,3.16246 -0.03115,4.530534 -0.42784,1.440685 -1.922037,3.445787 -3.347617,4.492261 -1.403251,1.030083 -2.947067,1.25766 -4.004859,0.590356 z"
       id="path854" />
    <path
       style="fill:#ffffff;fill-opacity:1;stroke-width:0.0269787"
       d="m 23.914761,39.417251 c 0.853481,-0.05731 1.631956,-0.359715 2.250956,-0.874319 0.909594,-0.756191 1.001843,-1.917091 0.217793,-2.7408 -0.703079,-0.738644 -1.860265,-1.145302 -3.113537,-1.094173 -1.042702,0.04257 -1.860584,0.34987 -2.492834,0.936717 -0.488231,0.453163 -0.716732,0.969544 -0.678724,1.533803 0.03229,0.479483 0.235035,0.879785 0.636347,1.256478 0.764953,0.718028 1.899041,1.068343 3.179999,0.982294 z m -0.733488,-6.364158 0.730073,-0.0081 v -0.205522 c 0,-0.113031 -0.03714,-0.466251 -0.08253,-0.784927 -0.07867,-0.552314 -0.08066,-0.588184 -0.04246,-0.767171 0.101129,-0.473932 0.473542,-0.956982 1.134814,-1.47196 0.367612,-0.286279 0.582365,-0.42711 1.569316,-1.029131 2.669256,-1.628179 3.102234,-1.913394 3.562545,-2.346717 0.578453,-0.544542 0.938994,-1.012749 1.227637,-1.594246 0.302987,-0.610383 0.406655,-1.021298 0.428415,-1.698142 0.02188,-0.680742 -0.04733,-1.149545 -0.256816,-1.739506 -0.65074,-1.832617 -2.696145,-3.368844 -5.343874,-4.013571 -1.62989,-0.396879 -3.687011,-0.452057 -5.499429,-0.147498 -0.974541,0.163764 -1.904431,0.45248 -2.742891,0.851632 -1.556993,0.741204 -2.462558,1.696157 -2.749341,2.899277 -0.04933,0.206831 -0.05896,0.328764 -0.05875,0.740938 3.03e-4,0.457859 0.0057,0.509944 0.07267,0.723744 0.100482,0.319589 0.187854,0.503243 0.358782,0.754134 0.577748,0.848007 1.543034,1.412237 2.694032,1.574714 0.377798,0.05335 1.150435,0.05358 1.511228,4.61e-4 1.145005,-0.168532 2.086616,-0.773285 2.386197,-1.532546 0.06115,-0.15499 0.06851,-0.21262 0.06814,-0.533769 -4.03e-4,-0.324212 -0.0079,-0.381224 -0.07628,-0.573119 -0.194592,-0.546554 -0.595271,-0.943174 -1.271304,-1.258433 -1.090574,-0.508586 -1.433904,-0.710204 -1.596926,-0.937796 -0.07158,-0.09993 -0.08233,-0.137214 -0.07831,-0.271415 0.01979,-0.659599 0.878109,-1.158505 2.301544,-1.337802 0.340384,-0.04286 1.466719,-0.04185 1.814948,0.0015 1.148732,0.143456 2.055357,0.523781 2.647367,1.110562 0.247162,0.244974 0.369014,0.429059 0.467866,0.706809 0.190579,0.535481 0.06546,1.172407 -0.377074,1.919522 -0.219263,0.370171 -0.445051,0.678325 -1.084499,1.4801 -1.164827,1.460519 -1.66386,2.144209 -1.936837,2.653506 -0.763275,1.424053 -1.092079,2.980933 -0.988453,4.680312 0.03602,0.590745 0.11753,1.322025 0.202128,1.813453 l 0.05968,0.346691 0.10917,7.2e-4 c 0.06004,6.04e-4 0.437704,-0.0029 0.839244,-0.0072 z"
       id="path1176" />
  </g>
</svg>
